<svg width="22" height="19" viewBox="0 0 22 19" fill="none" xmlns="http://www.w3.org/2000/svg">
<path d="M0.292969 0.387939H21.2285V18.2189H0.292969V0.387939ZM19.5135 13.9662C19.3609 13.1527 18.7389 12.4692 16.894 11.8317C16.252 11.5754 15.5384 11.3971 15.3264 10.9847C15.247 10.7396 15.2348 10.6058 15.2863 10.461C15.4172 9.98101 16.0845 9.83688 16.6079 9.97061C16.9481 10.0598 17.2621 10.2827 17.4592 10.6393C18.3612 10.137 18.3612 10.137 18.9902 9.80344C18.7546 9.4914 18.6377 9.35693 18.479 9.22394C17.9294 8.70015 17.1975 8.43269 16.0068 8.45572L15.3919 8.52184C14.8022 8.64443 14.2404 8.91189 13.9002 9.26851C12.9058 10.2277 13.1927 11.8993 14.3965 12.5903C15.5873 13.3481 17.3284 13.5145 17.5508 14.2285C17.7602 15.0978 16.7919 15.3764 15.8359 15.2761C15.1284 15.1423 14.7367 14.8407 14.305 14.2835L12.7086 15.0643C12.8918 15.4209 13.1012 15.5762 13.4152 15.8883C14.933 17.1929 18.7276 17.126 19.4089 15.1423C19.4342 15.0755 19.6182 14.6186 19.4734 13.9165L19.5135 13.9662ZM11.6775 8.58351H9.71658C9.71658 10.0234 9.70873 11.4543 9.70873 12.8964C9.70873 13.8117 9.76368 14.652 9.58835 14.9105C9.30048 15.4224 8.55902 15.3571 8.2223 15.2672C7.87687 15.1215 7.70153 14.9209 7.49828 14.6319C7.44333 14.5539 7.40233 14.4863 7.3875 14.4863L5.79553 15.3221C6.06158 15.7902 6.44976 16.1929 6.95047 16.4492C7.6963 16.8281 8.69859 16.9507 9.74798 16.7501C10.431 16.5822 11.0198 16.2367 11.3277 15.7018C11.7726 15.0108 11.6784 14.1639 11.6741 13.2158C11.6845 11.6898 11.6741 10.163 11.6741 8.62511L11.6775 8.58351Z" fill="white"/>
</svg>
