<svg width="22" height="19" viewBox="0 0 22 19" fill="none" xmlns="http://www.w3.org/2000/svg">
<path d="M6.9953 14.1775C6.9953 14.1775 5.91068 14.5742 7.76765 14.7079C10.0173 14.8699 11.167 14.8469 13.6449 14.5512C13.6449 14.5512 14.2978 14.8082 15.2073 15.0311C9.64946 16.5267 2.63083 14.9435 6.9953 14.1775ZM6.3152 12.2257C6.3152 12.2257 5.0993 12.7911 6.95626 12.9122C9.35968 13.0675 11.2569 13.0808 14.5414 12.6834C14.5414 12.6834 14.9956 12.9724 15.7088 13.1306C8.99183 14.3647 1.50719 13.2272 6.3152 12.2257ZM12.0399 8.91352C13.4095 9.9039 11.6803 10.7955 11.6803 10.7955C11.6803 10.7955 15.1565 9.66764 13.5597 8.25599C12.0682 6.93945 10.9245 6.28564 17.1164 4.02998C17.1164 4.02998 7.39862 5.55381 12.0399 8.91352ZM19.3897 15.6218C19.3897 15.6218 20.1928 16.0371 18.5061 16.3581C15.2984 16.9688 5.15489 17.1523 2.33868 16.3826C1.32622 16.1055 3.22577 15.7214 3.82189 15.6411C4.44522 15.5564 4.80124 15.572 4.80124 15.572C3.67404 15.0735 -2.47997 16.5505 1.67514 16.974C13.0062 18.1278 22.3289 16.4539 19.3897 15.6218ZM7.5169 10.2026C7.5169 10.2026 2.35761 10.9723 5.69069 11.2516C7.09701 11.3698 9.90257 11.343 12.5153 11.2056C14.6514 11.0927 16.7946 10.8512 16.7946 10.8512C16.7946 10.8512 16.0412 11.0533 15.4959 11.2873C10.2574 12.1529 0.136345 11.7502 3.05072 10.8653C5.51327 10.1179 7.5169 10.2026 7.5169 10.2026ZM16.771 13.4523C22.097 11.7138 19.6345 10.0428 17.9159 10.2687C17.496 10.3237 17.3068 10.3712 17.3068 10.3712C17.3068 10.3712 17.4629 10.2174 17.7622 10.1506C21.1627 9.39942 23.7778 12.3654 16.6645 13.54C16.6645 13.54 16.7473 13.4939 16.771 13.4523ZM13.5597 0.387939C13.5597 0.387939 16.5096 2.24091 10.7625 5.09094C6.15434 7.37706 9.71214 8.68097 10.7613 10.1699C8.07163 8.64457 6.09756 7.3035 7.4211 6.05457C9.36559 4.22018 14.7508 3.33159 13.5597 0.387939ZM8.03969 18.1628C13.1517 18.3686 21.0018 18.0491 21.1875 16.5297C21.1875 16.5297 20.8303 17.1055 16.9626 17.5632C12.6005 18.0788 7.21766 18.0186 4.02651 17.688C4.02651 17.688 4.68059 18.0275 8.03969 18.1628Z" fill="white"/>
</svg>
