<svg width="22" height="19" viewBox="0 0 22 19" fill="none" xmlns="http://www.w3.org/2000/svg">
<path d="M12.9242 0.778752L13.7093 0.927344L14.3461 1.12051L14.8608 1.3434L15.2533 1.58115L15.5499 1.83375L15.768 2.08636L15.9075 2.33153L15.9948 2.55442L16.0297 2.74759L16.0471 2.89618L16.0384 2.99277V6.96016L15.9948 7.42822L15.8814 7.83685L15.6982 8.17861L15.4714 8.46094L15.2097 8.69125L14.9218 8.87699L14.6165 9.01815L14.3112 9.12217L14.0233 9.19646L13.7616 9.24847L13.5348 9.27819L13.3517 9.29305H8.14394L7.54204 9.3302L7.02738 9.43421L6.59122 9.59766L6.23357 9.79826L5.94571 10.036L5.71018 10.296L5.53572 10.5635L5.40487 10.8384L5.31764 11.0984L5.25658 11.3362L5.22169 11.5368L5.20424 11.6928V13.9663H3.25898L3.07579 13.944L2.83155 13.892L2.55241 13.8028L2.2471 13.6691L1.93306 13.4759L1.61903 13.2084L1.31372 12.8667L1.03458 12.4283L0.790332 11.886L0.607146 11.2322L0.485022 10.4521L0.441406 9.53823L0.493745 8.63182L0.633315 7.85914L0.842671 7.21277L1.12181 6.68527L1.43584 6.26178L1.78477 5.93488L2.15114 5.6897L2.51751 5.51139L2.86644 5.39252L3.18047 5.31822L3.45961 5.28108L3.66897 5.27365H3.80854L3.86088 5.28108H10.979V4.66442H5.88465L5.87592 2.62129L5.85848 2.34639L5.90209 2.09379L5.99805 1.86347L6.14634 1.65544L6.36442 1.46227L6.63484 1.29139L6.96632 1.1428L7.35013 1.00907L7.79501 0.897625L8.30096 0.80847L8.85924 0.734174L9.47858 0.689597L10.1503 0.659879L10.883 0.64502L11.9908 0.682167L12.9242 0.778752ZM7.42864 2.24981L7.22801 2.49498L7.15823 2.7996L7.22801 3.10421L7.42864 3.35682L7.71651 3.52027L8.07416 3.58713L8.4318 3.52027L8.71967 3.35682L8.9203 3.10421L8.99009 2.7996L8.9203 2.49498L8.71967 2.24981L8.4318 2.08636L8.07416 2.01949L7.71651 2.08636L7.42864 2.24981ZM18.8472 5.18449L19.0915 5.22907L19.3706 5.31822L19.6759 5.45196L19.99 5.65255L20.304 5.91259L20.6093 6.26178L20.8884 6.70013L21.1327 7.24249L21.3159 7.89629L21.438 8.66896L21.4816 9.5828L21.4293 10.4966L21.2897 11.2693L21.0804 11.9083L20.8012 12.4358L20.4872 12.8592L20.1383 13.1936L19.7719 13.4388L19.4055 13.6171L19.0566 13.7359L18.7426 13.8028L18.4634 13.84L18.2541 13.8548L18.1145 13.8474H10.9441V14.4566H16.0384L16.0471 16.5072L16.0646 16.7746L16.0209 17.0272L15.925 17.2576L15.7767 17.473L15.5586 17.6588L15.2882 17.8371L14.9567 17.9857L14.5729 18.112L14.128 18.2234L13.6221 18.32L13.0638 18.3869L12.4444 18.4389L11.7728 18.4686L11.04 18.476L9.93218 18.4463L8.99881 18.3423L8.21373 18.1937L7.57694 18.0079L7.06227 17.7851L6.66973 17.5399L6.37314 17.2873L6.15506 17.0347L6.01549 16.7895L5.92826 16.5666L5.89337 16.3809L5.87592 16.2323L5.88465 16.1357V12.1683L5.92826 11.6928L6.04166 11.2916L6.22485 10.9498L6.45165 10.6675L6.71335 10.4298L7.00121 10.2515L7.30652 10.1029L7.61183 9.99886L7.89969 9.92456L8.16139 9.87999L8.38819 9.85027L8.57137 9.83541L8.68478 9.82798H13.7791L14.381 9.79083L14.8957 9.68682L15.3318 9.5308L15.6895 9.32277L15.9773 9.08502L16.2128 8.82499L16.3873 8.55752L16.5182 8.29006L16.6054 8.03002L16.6665 7.79227L16.7013 7.58425L16.7188 7.42822V5.15477H18.5419L18.664 5.1622L18.8472 5.18449ZM13.2034 15.7716L13.0027 16.0168L12.9329 16.3214L13.0027 16.626L13.2034 16.8712L13.4912 17.0421L13.8489 17.1015L14.2065 17.0421L14.4944 16.8712L14.695 16.626L14.7648 16.3214L14.695 16.0168L14.4944 15.7716L14.2065 15.6008L13.8489 15.5413L13.4912 15.6008L13.2034 15.7716Z" fill="white"/>
</svg>
