<svg width="40" height="40" viewBox="0 0 40 40" fill="none" xmlns="http://www.w3.org/2000/svg">
<path d="M39.5 20C39.5 30.7696 30.7696 39.5 20 39.5C9.23045 39.5 0.5 30.7696 0.5 20C0.5 9.23045 9.23045 0.5 20 0.5C30.7696 0.5 39.5 9.23045 39.5 20Z" fill="#796A7E" fill-opacity="0.2"/>
<path d="M39.5 20C39.5 30.7696 30.7696 39.5 20 39.5C9.23045 39.5 0.5 30.7696 0.5 20C0.5 9.23045 9.23045 0.5 20 0.5C30.7696 0.5 39.5 9.23045 39.5 20Z" stroke="url(#paint0_linear_132_8062)" style="mix-blend-mode:overlay"/>
<path d="M10.7393 19.9912C10.7393 20.8936 11.4697 21.624 12.3721 21.624H18.334V27.5859C18.334 28.4775 19.0537 29.2188 19.9561 29.2188C20.8584 29.2188 21.5889 28.4775 21.5889 27.5859V21.624H27.5508C28.4424 21.624 29.1729 20.8936 29.1729 19.9912C29.1729 19.0996 28.4424 18.3691 27.5508 18.3691H21.5889V12.4072C21.5889 11.5156 20.8584 10.7744 19.9561 10.7744C19.0537 10.7744 18.334 11.5156 18.334 12.4072V18.3691H12.3721C11.4697 18.3691 10.7393 19.0996 10.7393 19.9912Z" fill="#ECC5FA" fill-opacity="0.55" style="mix-blend-mode:overlay"/>
<defs>
<linearGradient id="paint0_linear_132_8062" x1="6.5" y1="5" x2="35.5" y2="31" gradientUnits="userSpaceOnUse">
<stop stop-color="#E8A9FF"/>
<stop offset="1" stop-color="#53E1FF"/>
</linearGradient>
</defs>
</svg>
