<svg width="40" height="40" viewBox="0 0 40 40" fill="none" xmlns="http://www.w3.org/2000/svg">
<g clip-path="url(#clip0_132_8864)">
<mask id="mask0_132_8864" style="mask-type:alpha" maskUnits="userSpaceOnUse" x="2" y="1" width="36" height="38">
<path d="M16 2.3094C18.4752 0.880338 21.5248 0.880338 24 2.3094L33.3205 7.6906C35.7957 9.11966 37.3205 11.7607 37.3205 14.6188V25.3812C37.3205 28.2393 35.7957 30.8803 33.3205 32.3094L24 37.6906C21.5248 39.1197 18.4752 39.1197 16 37.6906L6.67949 32.3094C4.20428 30.8803 2.67949 28.2393 2.67949 25.3812V14.6188C2.67949 11.7607 4.20428 9.11966 6.67949 7.6906L16 2.3094Z" fill="#C4C4C4"/>
</mask>
<g mask="url(#mask0_132_8864)">
<path d="M49 42H41.062C38.4102 42 34.4187 40.6051 31.215 38.5832C29.3988 39.7318 27.404 40.6237 25.2817 41.2078C23.912 41.7199 22.4289 42 20.8805 42C20.6657 42 20.4522 41.9946 20.2401 41.9839C19.9578 41.9946 19.6742 42 19.3893 42C14.5212 42 10.0198 40.4298 6.36388 37.7684C3.7801 36.7774 1.09516 35.8473 -0.832309 35.4356C-1.94589 35.1978 -3.03698 35.0692 -3.99033 34.9569C-5.49633 34.7795 -6.65861 34.6426 -7.02283 34.1792C-7.56512 33.4891 -7.07602 32.0394 -6.78067 31.164C-6.75208 31.0793 -6.7253 30.9999 -6.70145 30.9272C-6.41706 30.0594 -6.62317 29.7026 -7.04762 29.2404C-7.47207 28.7782 -7.47483 28.2294 -7.03425 27.6995C-6.73925 27.3447 -6.08213 27.2543 -5.75209 27.2088C-5.68781 27.2 -5.63594 27.1928 -5.60156 27.1858C-5.72441 27.0892 -5.91031 26.9889 -6.11872 26.8763C-6.72519 26.5489 -7.52222 26.1186 -7.51023 25.3802C-7.50556 25.0923 -7.18703 24.8269 -6.80201 24.5061C-6.46748 24.2273 -6.08276 23.9067 -5.81008 23.4932C-5.34452 22.7872 -6.20745 22.3539 -6.83736 22.0375C-7.00102 21.9553 -7.14895 21.8811 -7.25377 21.8119C-7.76201 21.4768 -7.99949 20.9696 -8 20.3171C-8.00063 19.5158 -7.34214 19.2583 -6.61092 18.9723C-6.27862 18.8424 -5.9313 18.7065 -5.62399 18.5111C-4.46549 17.7745 -3.28786 16.786 -2.4362 16.0186C-2.16163 14.4416 -1.72031 12.9219 -1.13107 11.4782C2.01632 3.20911 10.065 -2.52258 19.2357 -2.52258C28.7872 -2.52258 37.7453 3.67204 40.6173 12.7816L49 42Z" fill="url(#paint0_angular_132_8864)"/>
<path d="M9.7501 23.588C8.83172 25.3337 8.31201 27.3218 8.31201 29.4314C8.31201 36.3728 13.9392 41.9999 20.8806 41.9999C27.822 41.9999 33.4491 36.3728 33.4491 29.4314C33.4491 26.8868 32.693 24.5189 31.3931 22.54C30.1581 27.264 25.8612 30.7499 20.7501 30.7499H9.7501V23.588Z" fill="url(#paint1_angular_132_8864)"/>
<path d="M12.2501 20.2944C14.5014 18.1671 17.5387 16.8628 20.8806 16.8628C24.0925 16.8628 27.0231 18.0676 29.2449 20.05C29.0868 24.6054 25.3441 28.2499 20.7501 28.2499H12.2501V20.2944Z" fill="url(#paint2_angular_132_8864)"/>
<path d="M43.9015 38.0955C45.1689 39.3641 42.571 42 42.571 42C37.9107 42 29.1538 41.1687 26.2156 33.2434L25.1516 29.8339C29.0356 28.136 31.7498 24.26 31.7498 19.75C31.7498 13.6748 26.8249 8.74996 20.7498 8.74996H12.2691C7.2342 7.54911 1.95916 9.63234 -0.887967 13.9979C-1.29186 14.5684 -2.10571 14.2264 -1.92352 13.5515C0.60595 4.18273 9.31644 -2.52258 19.2355 -2.52258C27.6483 -2.52258 35.6009 2.28312 39.3398 9.65348C40.3208 11.5872 40.0492 13.8622 39.4005 15.9312C37.8679 20.8193 36.2756 30.4632 43.9015 38.0955Z" fill="url(#paint3_angular_132_8864)"/>
<path d="M24.4009 27.4281L21.1636 17.054C20.4444 14.7493 19.0776 12.7461 17.2745 11.25H20.7498C25.4442 11.25 29.2498 15.0555 29.2498 19.75C29.2498 23.1375 27.2682 26.0622 24.4009 27.4281Z" fill="url(#paint4_angular_132_8864)"/>
<g style="mix-blend-mode:overlay">
<path d="M16 2.3094C18.4752 0.880338 21.5248 0.880338 24 2.3094L33.3205 7.6906C35.7957 9.11966 37.3205 11.7607 37.3205 14.6188V25.3812C37.3205 28.2393 35.7957 30.8803 33.3205 32.3094L24 37.6906C21.5248 39.1197 18.4752 39.1197 16 37.6906L6.67949 32.3094C4.20428 30.8803 2.67949 28.2393 2.67949 25.3812V14.6188C2.67949 11.7607 4.20428 9.11966 6.67949 7.6906L16 2.3094Z" fill="url(#paint5_linear_132_8864)" style="mix-blend-mode:overlay"/>
<path d="M16 2.3094C18.4752 0.880338 21.5248 0.880338 24 2.3094L33.3205 7.6906C35.7957 9.11966 37.3205 11.7607 37.3205 14.6188V25.3812C37.3205 28.2393 35.7957 30.8803 33.3205 32.3094L24 37.6906C21.5248 39.1197 18.4752 39.1197 16 37.6906L6.67949 32.3094C4.20428 30.8803 2.67949 28.2393 2.67949 25.3812V14.6188C2.67949 11.7607 4.20428 9.11966 6.67949 7.6906L16 2.3094Z" fill="url(#paint6_linear_132_8864)" fill-opacity="0.5"/>
</g>
</g>
</g>
<defs>
<radialGradient id="paint0_angular_132_8864" cx="0" cy="0" r="1" gradientUnits="userSpaceOnUse" gradientTransform="translate(21.6835 19.8135) rotate(35.2605) scale(29.0182 38.102)">
<stop offset="0.101333" stop-color="#612566"/>
<stop offset="0.12497" stop-color="#ED6A84"/>
<stop offset="0.396084" stop-color="#9E235F"/>
<stop offset="0.509199" stop-color="#612566"/>
<stop offset="0.58545" stop-color="#2C1842"/>
<stop offset="0.865758" stop-color="#21142C"/>
</radialGradient>
<radialGradient id="paint1_angular_132_8864" cx="0" cy="0" r="1" gradientUnits="userSpaceOnUse" gradientTransform="translate(24.0983 21.466) rotate(-31.3229) scale(21.2003 34.3807)">
<stop offset="0.101333" stop-color="#612566"/>
<stop offset="0.12497" stop-color="#ED6A84"/>
<stop offset="0.396084" stop-color="#9E235F"/>
<stop offset="0.509199" stop-color="#612566"/>
<stop offset="0.58545" stop-color="#2C1842"/>
<stop offset="0.865758" stop-color="#21142C"/>
</radialGradient>
<radialGradient id="paint2_angular_132_8864" cx="0" cy="0" r="1" gradientUnits="userSpaceOnUse" gradientTransform="translate(24.0983 21.466) rotate(-31.3229) scale(21.2003 34.3807)">
<stop offset="0.101333" stop-color="#612566"/>
<stop offset="0.12497" stop-color="#ED6A84"/>
<stop offset="0.396084" stop-color="#9E235F"/>
<stop offset="0.509199" stop-color="#612566"/>
<stop offset="0.58545" stop-color="#2C1842"/>
<stop offset="0.865758" stop-color="#21142C"/>
</radialGradient>
<radialGradient id="paint3_angular_132_8864" cx="0" cy="0" r="1" gradientUnits="userSpaceOnUse" gradientTransform="translate(23.1993 33.5472) rotate(54.3486) scale(19.0784 10.2935)">
<stop offset="0.000195603" stop-color="#2C1842"/>
<stop offset="0.0990559" stop-color="#21142C"/>
<stop offset="0.220158" stop-color="#080808"/>
<stop offset="0.381095" stop-color="#ED6A84"/>
<stop offset="0.589726" stop-color="#9E235F"/>
<stop offset="0.6817" stop-color="#612566"/>
</radialGradient>
<radialGradient id="paint4_angular_132_8864" cx="0" cy="0" r="1" gradientUnits="userSpaceOnUse" gradientTransform="translate(23.1993 33.5472) rotate(54.3486) scale(19.0784 10.2935)">
<stop offset="0.000195603" stop-color="#2C1842"/>
<stop offset="0.0990559" stop-color="#21142C"/>
<stop offset="0.220158" stop-color="#080808"/>
<stop offset="0.381095" stop-color="#ED6A84"/>
<stop offset="0.589726" stop-color="#9E235F"/>
<stop offset="0.6817" stop-color="#612566"/>
</radialGradient>
<linearGradient id="paint5_linear_132_8864" x1="36.5" y1="8" x2="18.0645" y2="45.249" gradientUnits="userSpaceOnUse">
<stop stop-color="#C441F4"/>
<stop offset="1" stop-color="#00DAEA"/>
</linearGradient>
<linearGradient id="paint6_linear_132_8864" x1="20" y1="0" x2="20" y2="40" gradientUnits="userSpaceOnUse">
<stop stop-color="white"/>
<stop offset="1" stop-color="#2596FF" stop-opacity="0.79"/>
</linearGradient>
<clipPath id="clip0_132_8864">
<rect width="40" height="40" fill="white"/>
</clipPath>
</defs>
</svg>
