<svg width="50" height="50" viewBox="0 0 50 50" fill="none" xmlns="http://www.w3.org/2000/svg">
<g filter="url(#filter0_f_132_8063)">
<circle cx="25" cy="25" r="20.5" stroke="url(#paint0_linear_132_8063)" style="mix-blend-mode:overlay"/>
</g>
<circle cx="25" cy="25" r="19.5" fill="black" fill-opacity="0.2"/>
<circle cx="25" cy="25" r="19.5" stroke="url(#paint1_linear_132_8063)" style="mix-blend-mode:overlay"/>
<path fill-rule="evenodd" clip-rule="evenodd" d="M36 25C36 31.0751 31.0751 36 25 36C18.9249 36 14 31.0751 14 25C14 18.9249 18.9249 14 25 14C31.0751 14 36 18.9249 36 25ZM29.2639 19.4437C30.0727 19.1327 30.8673 19.9273 30.5563 20.7361L28.1475 26.9988C27.9444 27.527 27.527 27.9444 26.9988 28.1475L20.7361 30.5563C19.9273 30.8673 19.1327 30.0727 19.4437 29.2639L21.8525 23.0012C22.0556 22.473 22.473 22.0556 23.0012 21.8525L29.2639 19.4437ZM25 27C26.1046 27 27 26.1046 27 25C27 23.8954 26.1046 23 25 23C23.8954 23 23 23.8954 23 25C23 26.1046 23.8954 27 25 27Z" fill="white" style="mix-blend-mode:overlay"/>
<defs>
<filter id="filter0_f_132_8063" x="0" y="0" width="50" height="50" filterUnits="userSpaceOnUse" color-interpolation-filters="sRGB">
<feFlood flood-opacity="0" result="BackgroundImageFix"/>
<feBlend mode="normal" in="SourceGraphic" in2="BackgroundImageFix" result="shape"/>
<feGaussianBlur stdDeviation="2" result="effect1_foregroundBlur_132_8063"/>
</filter>
<linearGradient id="paint0_linear_132_8063" x1="6" y1="9.5" x2="47.5" y2="41.5" gradientUnits="userSpaceOnUse">
<stop stop-color="#C322FF"/>
<stop offset="1" stop-color="#00BAE1"/>
</linearGradient>
<linearGradient id="paint1_linear_132_8063" x1="6" y1="9.5" x2="47.5" y2="41.5" gradientUnits="userSpaceOnUse">
<stop stop-color="#E8A9FF"/>
<stop offset="1" stop-color="#53E1FF"/>
</linearGradient>
</defs>
</svg>
