<svg width="20" height="20" viewBox="0 0 20 20" fill="none" xmlns="http://www.w3.org/2000/svg">
<path d="M0.739258 9.99121C0.739258 10.8936 1.46973 11.624 2.37207 11.624H8.33398V17.5859C8.33398 18.4775 9.05371 19.2188 9.95605 19.2188C10.8584 19.2188 11.5889 18.4775 11.5889 17.5859V11.624H17.5508C18.4424 11.624 19.1729 10.8936 19.1729 9.99121C19.1729 9.09961 18.4424 8.36914 17.5508 8.36914H11.5889V2.40723C11.5889 1.51562 10.8584 0.774414 9.95605 0.774414C9.05371 0.774414 8.33398 1.51562 8.33398 2.40723V8.36914H2.37207C1.46973 8.36914 0.739258 9.09961 0.739258 9.99121Z" fill="#636363" style="mix-blend-mode:overlay"/>
</svg>
